<?xml version="1.0" standalone="no"?><!DOCTYPE svg PUBLIC "-//W3C//DTD SVG 1.1//EN" "http://www.w3.org/Graphics/SVG/1.1/DTD/svg11.dtd"><svg t="1779542250922" class="icon" viewBox="0 0 1024 1024" version="1.1" xmlns="http://www.w3.org/2000/svg" p-id="3744" xmlns:xlink="http://www.w3.org/1999/xlink" width="200" height="200"><path d="M490.666667 88.32V42.666667h85.333333v45.653333c145.152 20.693333 256.725333 145.194667 256.725333 295.68v162.432L938.666667 810.666667h-240.042667a170.752 170.752 0 0 1-330.581333 0H128l105.941333-264.234667V384c0-150.485333 111.573333-274.986667 256.725334-295.68zM459.434667 810.666667a85.333333 85.333333 0 0 0 147.797333 0h-147.797333z m287.744-247.765334V384c0-117.802667-95.744-213.333333-213.845334-213.333333a213.589333 213.589333 0 0 0-213.845333 213.333333v178.901333L254.293333 725.333333H812.373333l-65.152-162.432zM768 128V42.666667a170.666667 170.666667 0 0 1 170.666667 170.666666h-85.333334a85.333333 85.333333 0 0 0-85.333333-85.333333zM298.666667 128a85.333333 85.333333 0 0 0-85.333334 85.333333H128a170.666667 170.666667 0 0 1 170.666667-170.666666v85.333333z" fill="#2c2c2c" p-id="3745"></path></svg>