<?xml version="1.0" standalone="no"?><!DOCTYPE svg PUBLIC "-//W3C//DTD SVG 1.1//EN" "http://www.w3.org/Graphics/SVG/1.1/DTD/svg11.dtd"><svg t="1779542458564" class="icon" viewBox="0 0 1024 1024" version="1.1" xmlns="http://www.w3.org/2000/svg" p-id="5374" xmlns:xlink="http://www.w3.org/1999/xlink" width="200" height="200"><path d="M327.68 112.64a30.72 30.72 0 0 1 30.69952 29.568L358.4 143.36v122.88a30.72 30.72 0 0 1-61.41952 1.152L296.96 266.24V143.36a30.72 30.72 0 0 1 30.72-30.72zM450.56 112.64a30.72 30.72 0 0 1 30.69952 29.568L481.28 143.36v122.88a30.72 30.72 0 0 1-61.41952 1.152L419.84 266.24V143.36a30.72 30.72 0 0 1 30.72-30.72zM573.44 112.64a30.72 30.72 0 0 1 30.69952 29.568L604.16 143.36v122.88a30.72 30.72 0 0 1-61.41952 1.152L542.72 266.24V143.36a30.72 30.72 0 0 1 30.72-30.72zM788.48 849.92a30.72 30.72 0 0 1 1.152 61.41952L788.48 911.36H112.64a30.72 30.72 0 0 1-1.152-61.41952L112.64 849.92h675.84z" fill="#000000" p-id="5375"></path><path d="M788.48 358.4a30.72 30.72 0 0 1 30.69952 29.568L819.2 389.12v184.31488c0.0256 144.10752-83.9168 275.0208-214.8864 335.13984a30.72 30.72 0 1 1-25.63072-55.83872 307.25632 307.25632 0 0 0 179.05664-275.69664L757.76 573.44l-0.00512-153.6h-614.4L143.36 573.44512a307.25632 307.25632 0 0 0 175.81056 277.77024l3.26656 1.52064a30.72 30.72 0 1 1-25.63584 55.83872c-129.65888-59.52-213.2224-188.42112-214.85568-330.81344L81.92 573.44V389.12a30.72 30.72 0 0 1 29.568-30.69952L112.64 358.4h675.84z" fill="#000000" p-id="5376"></path><path d="M788.48 358.4c83.98336 0 152.22272 67.39968 153.57952 151.06048L942.08 512v30.72c0 83.98336-67.39968 152.22272-151.06048 153.57952L788.48 696.32h-12.97408a30.72 30.72 0 0 1-1.152-61.41952l1.152-0.02048H788.48c50.3296 0 91.2384-40.3456 92.14464-90.4704L880.64 542.72v-30.72c0-50.89792-41.26208-92.16-92.16-92.16a30.72 30.72 0 1 1 0-61.44z" fill="#000000" p-id="5377"></path></svg>